<?xml version="1.0" standalone="no"?>
<!DOCTYPE svg PUBLIC "-//W3C//DTD SVG 20010904//EN"
 "http://www.w3.org/TR/2001/REC-SVG-20010904/DTD/svg10.dtd">
<svg version="1.0" xmlns="http://www.w3.org/2000/svg"
 width="780.000000pt" height="780.000000pt" viewBox="0 0 780.000000 780.000000"
 preserveAspectRatio="xMidYMid meet">
<metadata>
Created by potrace 1.14, written by Peter Selinger 2001-2017
</metadata>
<g transform="translate(0.000000,780.000000) scale(0.100000,-0.100000)"
fill="#000000" stroke="none">
<path d="M2016 6570 c-83 -25 -146 -119 -146 -218 0 -37 -6 -55 -28 -82 -69
-86 -136 -243 -148 -350 -6 -55 -11 -66 -46 -98 -37 -36 -78 -122 -78 -167 0
-39 40 -129 72 -163 42 -44 126 -82 182 -82 43 0 44 0 75 -62 38 -77 96 -186
135 -253 66 -113 120 -202 147 -242 16 -23 29 -46 29 -51 0 -5 7 -12 15 -16 8
-3 15 -12 15 -19 0 -8 14 -33 30 -55 17 -23 30 -45 30 -48 0 -3 20 -35 45 -71
25 -35 45 -67 45 -70 0 -3 15 -26 34 -52 18 -25 82 -118 141 -206 59 -88 115
-169 126 -181 10 -11 19 -26 19 -32 0 -7 5 -12 10 -12 6 0 14 -10 19 -23 5
-13 20 -36 33 -53 21 -26 147 -201 173 -242 12 -18 107 -148 180 -247 28 -36
73 -97 100 -135 107 -145 201 -268 262 -342 35 -43 63 -80 63 -84 0 -4 9 -16
20 -28 43 -44 180 -217 180 -226 0 -5 6 -13 14 -17 7 -4 31 -30 52 -58 33 -45
102 -125 227 -268 23 -27 43 -52 45 -57 2 -4 -46 13 -105 40 -161 71 -308 124
-528 189 -38 12 -112 27 -163 35 -51 7 -94 15 -96 17 -2 2 -11 19 -20 36 -16
32 -65 64 -116 76 -29 7 -94 -10 -128 -34 -32 -23 -62 -86 -62 -133 0 -50 40
-121 82 -142 30 -15 30 -17 24 -72 -43 -397 -38 -1093 14 -1997 5 -93 12 -194
16 -223 l6 -52 149 0 149 0 0 58 c-1 187 -33 863 -50 1052 -5 63 -17 198 -25
300 -8 102 -20 226 -26 275 -21 165 -68 489 -83 570 -8 43 -13 81 -10 84 2 2
14 -5 27 -17 27 -25 136 -94 197 -125 25 -12 47 -25 50 -28 5 -7 149 -76 230
-111 25 -11 59 -25 75 -33 17 -7 53 -21 80 -30 28 -10 59 -21 70 -26 87 -36
365 -113 456 -125 42 -6 48 -10 64 -46 10 -24 35 -52 60 -70 l43 -31 -14 -46
c-14 -47 -27 -111 -69 -346 -66 -373 -99 -597 -170 -1145 -9 -69 -19 -133 -21
-142 -5 -17 7 -18 148 -18 l154 0 22 323 c13 177 27 384 33 459 10 146 20 479
23 746 l1 164 38 13 c20 7 40 9 43 4 21 -35 425 -256 634 -348 353 -154 729
-274 993 -316 26 -4 41 -13 47 -28 24 -61 96 -125 143 -127 9 0 17 -4 17 -10
0 -17 69 -11 117 11 112 51 163 174 113 276 -21 44 -78 99 -117 114 -33 12
-130 12 -138 -1 -4 -6 -10 -8 -15 -5 -4 3 -13 -2 -20 -11 -7 -8 -16 -11 -19
-6 -27 39 -438 265 -631 347 -36 15 -78 33 -95 41 -16 7 -73 29 -125 50 -52
20 -108 42 -125 49 -16 7 -84 29 -150 50 -66 20 -129 41 -140 45 -33 15 -264
68 -347 81 -66 10 -78 15 -78 31 0 10 -18 38 -40 62 -40 44 -93 66 -154 66
-22 0 -32 13 -76 103 -67 134 -93 181 -102 185 -5 2 -8 7 -8 12 0 10 -79 146
-145 250 -30 47 -58 92 -62 100 -4 8 -50 80 -102 160 -53 80 -100 153 -106
162 -29 51 -269 398 -281 409 -8 6 -14 17 -14 23 -1 10 -100 150 -134 189 -9
9 -16 20 -16 23 0 6 -61 91 -157 220 -35 46 -63 86 -63 89 0 3 -7 13 -16 23
-8 9 -42 53 -74 97 -33 44 -67 89 -75 100 -9 11 -42 56 -75 100 -77 103 -77
104 -163 212 -39 50 -124 157 -187 237 -63 80 -118 146 -123 146 -4 0 -10 8
-14 18 -3 9 -43 60 -88 112 -45 52 -90 106 -101 119 -10 14 -29 34 -42 46 -12
13 -36 40 -53 61 -17 22 -75 85 -130 140 l-100 102 12 46 c11 43 14 47 65 66
51 18 119 53 206 102 21 12 78 56 127 100 l90 78 58 -29 c77 -39 137 -65 198
-86 28 -9 59 -21 70 -25 33 -14 149 -40 177 -40 18 0 27 -6 31 -22 4 -13 26
-43 51 -67 41 -40 49 -44 109 -48 83 -7 108 0 153 39 46 41 64 83 64 152 0 51
1 54 23 49 12 -3 27 -9 32 -13 18 -12 294 -100 415 -132 198 -52 446 -97 541
-98 42 0 48 -3 53 -25 11 -42 73 -102 123 -119 117 -40 218 -4 279 100 36 61
32 191 -8 239 -79 98 -187 130 -286 85 -47 -21 -51 -21 -119 26 -49 33 -290
154 -388 193 -44 18 -93 39 -110 46 -16 7 -52 21 -80 30 -27 10 -63 23 -80 30
-16 7 -52 18 -80 25 -27 7 -55 17 -60 21 -6 4 -33 13 -60 19 -28 7 -77 20
-110 30 -165 50 -399 95 -548 107 -66 5 -68 6 -87 42 -24 49 -88 105 -135 121
-50 16 -142 9 -190 -16 -44 -23 -105 -104 -105 -139 0 -21 -3 -22 -27 -14 -16
5 -47 14 -70 19 -27 7 -44 17 -48 30 -11 35 -102 118 -142 129 -44 13 -106 13
-147 1z"/>
</g>
</svg>
